<svg width="129" height="153" viewBox="0 0 129 153" fill="none" xmlns="http://www.w3.org/2000/svg">
<path d="M117.468 76.7896L124.678 69.5698L127.278 66.9595C127.544 66.6988 127.756 66.3879 127.9 66.0444C128.044 65.701 128.119 65.332 128.119 64.9595C128.119 64.587 128.044 64.2189 127.9 63.8755C127.756 63.5321 127.544 63.2202 127.278 62.9595L66.1084 1.78955C65.8477 1.52347 65.5363 1.31276 65.1929 1.16846C64.8494 1.02415 64.4809 0.949707 64.1084 0.949707C63.7359 0.949707 63.3669 1.02415 63.0234 1.16846C62.68 1.31276 62.3691 1.52347 62.1084 1.78955L0.937988 62.9595C0.67191 63.2202 0.460714 63.5321 0.316406 63.8755C0.172099 64.2189 0.0976562 64.587 0.0976562 64.9595C0.0976562 65.332 0.172099 65.701 0.316406 66.0444C0.460714 66.3879 0.67191 66.6988 0.937988 66.9595L10.7583 76.7896L3.53809 83.9995L0.937988 86.6001C0.67313 86.8615 0.462873 87.1728 0.319336 87.5161C0.175799 87.8594 0.102051 88.228 0.102051 88.6001C0.102051 88.9722 0.175799 89.3408 0.319336 89.6841C0.462873 90.0274 0.67313 90.3387 0.937988 90.6001L62.1084 151.77C62.3691 152.036 62.68 152.247 63.0234 152.391C63.3669 152.535 63.7359 152.61 64.1084 152.61C64.4809 152.61 64.8494 152.535 65.1929 152.391C65.5363 152.247 65.8477 152.036 66.1084 151.77L127.278 90.6001C127.543 90.3387 127.753 90.0274 127.897 89.6841C128.041 89.3408 128.114 88.9722 128.114 88.6001C128.114 88.228 128.041 87.8594 127.897 87.5161C127.753 87.1728 127.543 86.8615 127.278 86.6001L117.468 76.7896ZM8.1582 64.98L64.1582 8.97998L120.158 64.98L108.348 76.7896L64.188 120.94L20.0381 76.7896L8.1582 64.98ZM64.1582 144.56L8.1582 88.5601L15.3784 81.3501L62.1382 128.1C62.3989 128.366 62.7103 128.577 63.0537 128.721C63.3971 128.865 63.7657 128.94 64.1382 128.94C64.5107 128.94 64.8797 128.865 65.2231 128.721C65.5666 128.577 65.8775 128.366 66.1382 128.1L68.748 125.5L112.908 81.3501L120.118 88.5601L64.1582 144.56Z" fill="#FA7268"/>
<path d="M103.097 62.9897L100.487 60.3901L68.6074 28.4995L65.9971 25.8901C65.735 25.6265 65.4233 25.4167 65.0801 25.2739C64.7368 25.1312 64.3688 25.0581 63.9971 25.0581C63.6253 25.0581 63.2573 25.1312 62.9141 25.2739C62.5708 25.4167 62.2591 25.6265 61.9971 25.8901L59.3872 28.4995L27.5073 60.3901L24.8975 62.9897C24.6314 63.2504 24.4197 63.5614 24.2754 63.9048C24.1311 64.2482 24.0566 64.6172 24.0566 64.9897C24.0566 65.3623 24.1311 65.7313 24.2754 66.0747C24.4197 66.4181 24.6314 66.729 24.8975 66.9897L27.5073 69.6001L59.3872 101.49L61.9971 104.089C62.2578 104.355 62.5692 104.567 62.9126 104.711C63.256 104.856 63.6246 104.93 63.9971 104.93C64.3696 104.93 64.7386 104.856 65.082 104.711C65.4255 104.567 65.7364 104.355 65.9971 104.089L68.6074 101.49L100.487 69.6001L100.777 69.3101L103.097 66.9897C103.361 66.7277 103.57 66.416 103.713 66.0728C103.856 65.7295 103.929 65.3615 103.929 64.9897C103.929 64.618 103.856 64.25 103.713 63.9067C103.57 63.5635 103.361 63.2518 103.097 62.9897ZM64.0171 96.8696L32.1172 64.98L64.0171 33.0894L95.8975 64.98L64.0171 96.8696Z" fill="#FA7268"/>
<path d="M78.9282 62.9897L65.9282 49.9897C65.6661 49.7261 65.3545 49.5173 65.0112 49.3745C64.668 49.2317 64.3 49.1577 63.9282 49.1577C63.5565 49.1577 63.1885 49.2317 62.8452 49.3745C62.502 49.5173 62.1903 49.7261 61.9282 49.9897L48.9282 62.9897C48.6621 63.2504 48.4509 63.5614 48.3066 63.9048C48.1623 64.2482 48.0879 64.6172 48.0879 64.9897C48.0879 65.3623 48.1623 65.7313 48.3066 66.0747C48.4509 66.4181 48.6621 66.729 48.9282 66.9897L61.9282 79.9897C62.1889 80.2558 62.5003 80.4675 62.8438 80.6118C63.1872 80.7561 63.5557 80.8306 63.9282 80.8306C64.3007 80.8306 64.6693 80.7561 65.0127 80.6118C65.3561 80.4675 65.6675 80.2558 65.9282 79.9897L78.9282 66.9897C79.1943 66.729 79.4055 66.4181 79.5498 66.0747C79.6941 65.7313 79.7686 65.3623 79.7686 64.9897C79.7686 64.6172 79.6941 64.2482 79.5498 63.9048C79.4055 63.5614 79.1943 63.2504 78.9282 62.9897ZM63.9282 72.7896L56.1084 64.98L63.9282 57.1694L71.7383 64.98L63.9282 72.7896Z" fill="#FA7268"/>
</svg>
